<svg xmlns="http://www.w3.org/2000/svg" width="159" height="73" viewBox="0 0 159 73"><g fill="none" fill-rule="evenodd"><path fill="#4567C9" fill-rule="nonzero" d="M88.62 11.09v48.573h25.76a3.77 3.77 0 0 0 3.78-3.79V14.881a3.77 3.77 0 0 0-3.78-3.79"/><path fill="#312B3F" fill-rule="nonzero" d="M88.62 11.09h6.16v48.573h-6.16z" opacity=".31"/><path fill="#E85264" fill-rule="nonzero" d="M88.62 11.09L67.34 5.194v58.4l21.28-3.93z"/><path fill="#F9D500" fill-rule="nonzero" d="M57.68 59.663h9.66V11.09h-9.66c-1.82 0-3.22 1.404-3.22 3.23v42.115c0 1.684 1.4 3.228 3.22 3.228z"/><path fill="#FFF" fill-rule="nonzero" d="M88.62 20.777v29.2l14.7-14.74zm-36.54 4.492h36.4v19.935h-36.4z"/><path stroke="#606060" d="M40.6 1.825v8.704m-4.62-4.352h9.1m86.94 47.59v8.704m-4.48-4.351h8.96M27.02 63.875v8.704m-4.48-4.352h8.96M120.54.842v8.704m-4.48-4.352h8.96" opacity=".14"/><g fill-rule="nonzero"><path fill="#606060" d="M.775 38.385l27.649-15.671 12.46 21.984L13.236 60.37z" opacity=".07"/><path fill="#FFF" d="M12.37 43.668l1.097-.62 7.337 12.945-1.096.622zm14.008-7.966l1.096-.622 7.337 12.946-1.096.622zm-6.768 3.862l.87-.493 7.338 12.947-.87.493z"/><path fill="#606060" d="M13.383 42.847l6.09-3.452 7.407 13.07-6.09 3.45zm6.915-3.803l6.09-3.451 7.407 13.068-6.09 3.452z" opacity=".14"/><path fill="#FFF" d="M35.98 30.183l-.42-.421-7.14-7.16L.84 38.325l2.94 10.248c0 .14 0 .14.14.28.56.984 1.82 1.405 2.8.843.98-.561 1.4-1.825.84-2.808 0-.14-.14-.14-.14-.28 0 .14 0 .14.14.28.56.983 1.82 1.404 2.8.843.98-.562 1.4-1.825.84-2.808 0-.14-.14-.14-.14-.28 0 .14 0 .14.14.28.56.983 1.82 1.404 2.8.842.98-.561 1.4-1.825.84-2.807 0-.14-.14-.14-.14-.281 0 .14 0 .14.14.28.56.983 1.82 1.405 2.8.843.98-.562 1.4-1.825.84-2.808 0-.14-.14-.14-.14-.28 0 .14 0 .14.14.28.56.983 1.82 1.404 2.8.843.98-.562 1.4-1.825.84-2.808 0-.14-.14-.14-.14-.28 0 .14 0 .14.14.28.56.983 1.82 1.404 2.8.842.98-.561 1.4-1.825.84-2.807 0-.14-.14-.14-.14-.281 0 .14 0 .14.14.28.56.983 1.82 1.404 2.8.843.98-.562 1.4-1.825.84-2.808 0-.14-.14-.14-.14-.28 0 .14 0 .14.14.28.56.983 1.82 1.404 2.8.842.98-.561 1.4-1.825.84-2.807 0-.14-.14-.14-.14-.281 0 .14 0 .14.14.28.56.983 1.82 1.405 2.8.843.98-.561 1.4-1.825.84-2.808-.7-.842-.7-.842-.7-.982z"/><path fill="#606060" d="M35.98 30.183l-.42-.421-7.14-7.16L.84 38.325l2.94 10.248c0 .14 0 .14.14.28.56.984 1.82 1.405 2.8.843.98-.561 1.4-1.825.84-2.808 0-.14-.14-.14-.14-.28 0 .14 0 .14.14.28.56.983 1.82 1.404 2.8.843.98-.562 1.4-1.825.84-2.808 0-.14-.14-.14-.14-.28 0 .14 0 .14.14.28.56.983 1.82 1.404 2.8.842.98-.561 1.4-1.825.84-2.807 0-.14-.14-.14-.14-.281 0 .14 0 .14.14.28.56.983 1.82 1.405 2.8.843.98-.562 1.4-1.825.84-2.808 0-.14-.14-.14-.14-.28 0 .14 0 .14.14.28.56.983 1.82 1.404 2.8.843.98-.562 1.4-1.825.84-2.808 0-.14-.14-.14-.14-.28 0 .14 0 .14.14.28.56.983 1.82 1.404 2.8.842.98-.561 1.4-1.825.84-2.807 0-.14-.14-.14-.14-.281 0 .14 0 .14.14.28.56.983 1.82 1.404 2.8.843.98-.562 1.4-1.825.84-2.808 0-.14-.14-.14-.14-.28 0 .14 0 .14.14.28.56.983 1.82 1.404 2.8.842.98-.561 1.4-1.825.84-2.807 0-.14-.14-.14-.14-.281 0 .14 0 .14.14.28.56.983 1.82 1.405 2.8.843.98-.561 1.4-1.825.84-2.808-.7-.842-.7-.842-.7-.982z" opacity=".14"/><path fill="#606060" d="M5.892 31.182l14.129-8.008 1.869 3.297L7.76 34.48z" opacity=".07"/></g><text fill="#606060" font-family="Helvetica" font-size="15.252" opacity=".14" transform="rotate(18.93 148.362 35.382)"><tspan x="125.962" y="40.882">GST</tspan></text></g></svg>