<svg xmlns="http://www.w3.org/2000/svg" width="157" height="71" viewBox="0 0 157 71"><g fill="none" fill-rule="evenodd"><path fill="#606060" fill-rule="nonzero" d="M156.743 32.53l-11.325 27.497-26.638-10.972 13.64-33.177 21.105 8.778z" opacity=".07"/><path fill="#606060" fill-rule="nonzero" d="M135.58 23.478l.444-1.07 8.583 3.567-.445 1.07zm-2.557 4.732l.444-1.069 13.47 5.599-.444 1.07zm20.502-3.554l-2.316 5.68 5.534 2.195z" opacity=".14"/><path fill="#606060" fill-rule="nonzero" d="M151.209 30.336l3.475 7.23 2.059-5.035z" opacity=".32"/><path fill="#606060" fill-rule="nonzero" d="M134.35 43.116l1.545-7.1c-3.86-.903-7.721 1.55-8.622 5.422-.9 3.873 1.544 7.746 5.405 8.65 3.86.903 7.721-1.55 8.622-5.423.129-.645.129-1.161.129-1.807l-7.078.258z" opacity=".14"/><path stroke="#606060" d="M15.443.258v8.004M11.325 4.26h8.236m97.546 58.478v8.004m-4.247-4.002h8.365M4.633 49.442v8.003M.386 53.444h8.365M127.402.516V8.52m-4.247-4.002h8.365" opacity=".14"/><path fill="#211549" fill-rule="nonzero" d="M109.9 59.898H36.676c-1.03 0-1.801-.774-1.801-1.807V10.327c0-1.032.772-1.807 1.801-1.807H109.9c1.03 0 1.802.775 1.802 1.807v47.764c-.129 1.033-.901 1.807-1.802 1.807z"/><path fill="#FFF" fill-rule="nonzero" d="M40.794 14.716h64.602v38.727H40.794z"/><path fill="#4567C9" fill-rule="nonzero" d="M40.794 14.716h64.602v3.873H40.794z"/><path fill="#FFF" fill-rule="nonzero" d="M42.081 15.878h12.74v1.291h-12.74z"/><path fill="#312B3F" fill-rule="nonzero" d="M34.875 10.456v15.362c.643.13 1.286.13 1.93.13 6.434 0 11.71-5.293 11.71-11.748 0-2.065-.514-4.002-1.415-5.55H36.805c-1.03 0-1.93.774-1.93 1.806z"/><path fill="#7BCBA6" fill-rule="nonzero" d="M44.784 56.542c-.386 0-.644-.13-.901-.387-.515-.517-.644-1.42-.129-1.937L59.84 36.145c.386-.516 1.158-.645 1.673-.258l15.314 9.166 18.66-18.073c.515-.516 1.415-.516 1.93 0 .515.516.515 1.42 0 1.936L78.114 47.764c-.386.387-1.158.516-1.673.129l-15.314-9.037-15.314 17.299c-.257.258-.643.387-1.03.387z"/><path fill="#312B3F" fill-rule="nonzero" d="M40.794 53.444h23.164v3.744H40.794z"/><ellipse cx="96.13" cy="28.142" fill="#7BCBA6" fill-rule="nonzero" rx="1.93" ry="1.936"/><ellipse cx="77.213" cy="46.473" fill="#7BCBA6" fill-rule="nonzero" rx="1.93" ry="1.936"/><ellipse cx="60.998" cy="37.436" fill="#7BCBA6" fill-rule="nonzero" rx="1.93" ry="1.936"/><path fill="#FFF" fill-rule="nonzero" d="M97.289 15.878h6.82v1.291h-6.82zm-5.92 0h3.217v1.291h-3.217z"/><path fill="#FFF" fill-rule="nonzero" d="M111.573 58.09V10.457c0-1.032-.772-1.807-1.802-1.807H60.998L94.843 59.9h14.928c1.03 0 1.802-.775 1.802-1.808z" opacity=".52"/><ellipse cx="35.261" cy="12.264" fill="#E85264" fill-rule="nonzero" rx="11.711" ry="11.747"/><path fill="#F9D500" fill-rule="nonzero" d="M35.26 6.713l1.802 3.743 3.99.517-2.832 2.84.644 4.13-3.603-1.936-3.604 1.937.644-4.131-2.831-2.84 3.989-.517z"/><g fill-rule="nonzero"><path fill="#606060" d="M27.668 54.605l-6.177 3.615L4.633 29.562l4.375.129 1.93-3.744z" opacity=".14"/><path fill="#606060" d="M9.008 29.69H7.335l16.086 27.368 2.317-1.29L9.652 28.27z" opacity=".17"/><path fill="#FFF" d="M10.939 25.947L4.89 22.85l-.257 6.713 4.375.129z"/><path fill="#606060" d="M4.761 26.076l.13-3.227 2.959 1.42z" opacity=".32"/></g></g></svg>