<svg xmlns="http://www.w3.org/2000/svg" width="152" height="71" viewBox="0 0 152 71"><g fill="none" fill-rule="evenodd"><path fill="#606060" fill-rule="nonzero" d="M.737 35.076l27.139-17.253L40.46 37.617 13.32 54.87z" opacity=".14"/><path fill="#FFF" fill-rule="nonzero" d="M2.01 37.148l11.306 17.75 27.134-17.37-11.18-17.876z"/><path fill="#606060" fill-rule="nonzero" d="M2.01 37.148l11.306 17.75 27.134-17.37-11.18-17.876z" opacity=".07"/><path stroke="#FFF" stroke-width=".5" d="M39.068 41.586l-1.885-1.775"/><path fill="#DD6D36" fill-rule="nonzero" d="M75.121 49.446h5.904v21.3h-5.904z"/><path fill="#DD6D36" fill-rule="nonzero" d="M95.597 70.62h-6.658L75.12 49.446h6.658z"/><path fill="#DD6D36" fill-rule="nonzero" d="M60.549 70.62h6.658l13.818-21.174h-6.658z"/><path fill="#934D2B" fill-rule="nonzero" d="M84.04 52.87H72.106l2.26-3.424h7.413z"/><path fill="#F9F6E8" fill-rule="nonzero" d="M49.117 10.396h59.167v39.05H49.117z"/><path fill="#E85264" fill-rule="nonzero" d="M54.896 26.625h8.165v11.664h-8.165z"/><path fill="#F9D500" fill-rule="nonzero" d="M67.709 23.455h8.165v14.834h-8.165z"/><path fill="#4567C9" fill-rule="nonzero" d="M80.397 19.018h8.165v19.398h-8.165z"/><path fill="#7BCBA6" fill-rule="nonzero" d="M93.084 28.654h8.165v9.636h-8.165z"/><path fill="#BABBBE" fill-rule="nonzero" d="M46.354 46.784h64.569v2.536H46.354zm0-39.05h64.569v3.93H46.354z"/><path fill="#E0E1E2" fill-rule="nonzero" d="M74.744 4.184h7.663v3.55h-7.663z"/><path fill="#F4F4F4" fill-rule="nonzero" d="M49.117 11.664h59.167v2.029H49.117z"/><path stroke="#606060" d="M35.676 4.564v7.861m-4.02-3.93h8.04m71.226 49.446v7.86m-4.02-3.93h8.04m-86.929-4.183v7.987m-4.145-3.93h8.04M124.74.254v7.86m-4.145-3.93h8.165" opacity=".14"/><path fill="#606060" fill-rule="nonzero" d="M142.327 22.06c-1.884-.76-4.02-1.14-6.28-.887-7.664.634-13.316 7.48-12.688 15.215.628 7.733 7.411 13.439 15.074 12.805 7.663-.634 13.316-7.48 12.688-15.214l-13.944 1.267 5.15-13.185z" opacity=".14"/><path fill="#FFF" fill-rule="nonzero" d="M137.302 35.246l5.025-13.185c-1.884-.761-4.02-1.141-6.28-.888-3.518.254-6.659 1.902-8.92 4.438l10.175 9.635z" opacity=".55"/><path fill="#FFF" fill-rule="nonzero" d="M127.253 25.484c-1.759 1.902-3.015 4.437-3.517 7.1l13.692 2.536-10.175-9.636z" opacity=".3"/><path stroke="#606060" stroke-width=".25" d="M30.274 28.146l-6.155-.126-3.015 6.339-8.165.38-3.015 7.1 7.788-10.523 9.045-.38 2.01-7.48" opacity=".14"/><path fill="#FFF" fill-rule="nonzero" d="M9.415 46.05l6.595-4.142 3.709 5.905-6.595 4.142zm8.633-5.556l6.595-4.143 3.709 5.905-6.595 4.142zm8.701-5.451l6.595-4.142 3.709 5.905-6.595 4.142z"/><path fill="#606060" fill-rule="nonzero" d="M24.998 19.652L2.01 28.654l.628 1.648 15.451-6.213z" opacity=".14"/><path fill="#606060" fill-rule="nonzero" d="M2.638 30.302l1.256 2.916 14.195-9.129z" opacity=".07"/></g></svg>